<?xml version="1.0" encoding="utf-8"?>
<!-- Generator: Adobe Illustrator 24.1.2, SVG Export Plug-In . SVG Version: 6.00 Build 0)  -->
<svg version="1.1" id="Слой_1" xmlns:xodm="http://www.corel.com/coreldraw/odm/2003"
	 xmlns="http://www.w3.org/2000/svg" xmlns:xlink="http://www.w3.org/1999/xlink" x="0px" y="0px" viewBox="0 0 1199 156"
	 style="enable-background:new 0 0 1199 156;" xml:space="preserve">
<style type="text/css">
	.st0{fill:#FFFFFF;}
	.st1{fill-rule:evenodd;clip-rule:evenodd;fill:url(#SVGID_1_);}
	.st2{fill-rule:evenodd;clip-rule:evenodd;fill:url(#SVGID_2_);}
	.st3{fill-rule:evenodd;clip-rule:evenodd;fill:url(#SVGID_3_);}
</style>
<g id="Слой_x0020_1">
	<path class="st0" d="M229.9,138.3h-16.8c-4.2,0-6.4-1.4-6.4-4.4c0-1.6,0.5-2.6,1.4-3.1c3.1-1.6,5.8-3.7,7.8-6.2
		c1.7-2,3.2-5.4,4.6-10.1l16.1-55.4c1.3-4.6,2-8.1,2-10.8c0-1.3-1.1-2.5-3.4-3.6c-2.2-1.1-3.4-2.4-3.4-4.2c0-2.8,1.9-4.1,5.8-4.1
		H268l21.1,85.9c0.6,2.3,2.2,4.4,4.7,6.4c2.3,1.7,3.4,3.4,3.4,4.9c0,3-2.4,4.6-7.3,4.6h-32.1c-4.8,0-7.2-1.6-7.2-4.8
		c0-1.6,1-3,3-4.2c2-1.2,3-2.3,3-3.4c0-1.2-1.2-6.8-3.5-16.9h-22.4c-2,6.8-3,11.5-3,13.7c0,2.6,1.4,4.7,4.4,6.2
		c3,1.6,4.4,3.1,4.4,4.8c0,3-2.2,4.6-6.5,4.6L229.9,138.3z M568,128.1c-7.3,8-16.9,12-29,12c-11.7,0-20.6-4.3-26.6-12.9
		c-5-7.5-7.5-17.4-7.5-29.8c0-14,3.1-24.6,9.5-31.9s14.6-10.9,25-10.9c4,0,7.9,0.7,11.9,2.2c4.1,1.4,6.2,2.2,6.5,2.2
		c0.8,0,1.8-0.6,2.8-1.8c1-1.2,2.3-1.8,4-1.8c2.4,0,3.7,1.4,3.7,4.2v21.3c0,4.2-1.4,6.4-4.2,6.4c-1.2,0-2.2-0.4-2.9-1.1
		c-0.8-0.7-2.3-4.1-4.4-10.1c-1.9-5.6-4.6-9.5-7.9-11.6c-2.9-1.8-6-2.8-9.2-2.8c-3.4,0-5.5,1.1-6.5,3.2c-0.6,1.2-1,3.8-1,7.7v49.7
		c0,3.7,0.4,6.1,1,7.4c1,2.3,3,3.4,6.1,3.4c2.5,0,4.2-0.6,5-1.7c0.6-1,1-2.8,1-5.2v-17.9c0-2-1-3.6-3-4.6s-3-2.3-3-4.1
		c0-2.2,1.6-3.2,4.8-3.2h23.7c2.9,0,4.2,1.2,4.2,3.5c0,1.3-0.6,2.5-1.9,3.6c-1.3,1.1-1.9,2.4-1.9,3.8V128.1z M610.1,99.9v31.2h3.8
		c5.3,0,9.1-1.6,11.6-4.4c1.7-1.8,3.5-5.6,5.5-11.5c0.7-1.9,1.9-2.9,3.6-2.9c2.5,0,3.8,2.8,3.8,8.1v18.2h-55.4
		c-3.2,0-4.8-1.2-4.8-3.5c0-1.6,1-2.8,2.8-3.6c1.8-0.7,2.8-1.6,3-2.5c0.1-0.5,0.2-1.6,0.2-3.2v-57c0-2.5-1-4.3-3-5.4
		c-2-1.1-3-2.4-3-4c0-2.3,1.6-3.4,4.8-3.4h54.6v22c0,2.3-1.1,3.5-3.2,3.5c-1.6,0-2.8-1-3.6-2.9c-1-2.6-1.8-4.7-2.5-6.1
		c-1.1-2.3-2.6-4.3-4.6-6.2c-1.6-1.4-3.7-2.3-6.6-2.6c-1-0.1-3.4-0.1-7.2-0.1v28.6h3.8c2.3,0,4-1.1,5.2-3.4c0.7-2,1.6-4.1,2.4-6.1
		c0.8-2.2,1.9-3.1,3.1-3.1c2,0,3,2.2,3,6.4v20.7c0,4-1,5.9-3,5.9c-1.2,0-2.3-1.1-3.2-3.4c-0.8-2-1.7-4.1-2.5-6.1
		c-1.3-2.3-3-3.4-4.9-3.4h-3.8V99.9z M677.8,56.2l23.6,43.4V77.4c0-7.3-2.5-12.3-7.5-15.1c-1-0.5-1.3-1.3-1.3-2.4
		c0-2.5,1.4-3.8,4.4-3.8h15.2c3.1,0,4.6,1.3,4.6,3.8c0,1-0.5,1.7-1.4,2.4c-1,0.7-2,1.3-3,1.9c-3.1,2.5-4.6,7.1-4.6,13.7v60.7h-15.2
		l-33.2-58.9v38c0,3.5,0.6,6.2,1.7,8.3c1.1,2,3.1,4.1,6.1,6.1c1,0.6,1.4,1.6,1.4,2.9c0,2.5-1.6,3.8-4.7,3.8H649
		c-3.2,0-4.8-1.3-4.8-3.8c0-1.2,0.5-2,1.4-2.6c5.2-3.2,7.7-8.3,7.7-14.9V68.3c-0.7-1.2-1.9-2.8-3.6-4.4c-1.2-0.5-2.4-1-3.7-1.6
		c-1.2-0.6-1.9-1.6-1.9-2.9c0-2,1.4-3.1,4.3-3.1h29.5L677.8,56.2z M752.3,99.9v31.2h3.8c5.3,0,9.1-1.6,11.6-4.4
		c1.7-1.8,3.5-5.6,5.5-11.5c0.7-1.9,1.9-2.9,3.6-2.9c2.5,0,3.8,2.8,3.8,8.1v18.2h-55.4c-3.2,0-4.8-1.2-4.8-3.5c0-1.6,1-2.8,2.8-3.6
		c1.8-0.7,2.8-1.6,3-2.5c0.1-0.5,0.2-1.6,0.2-3.2v-57c0-2.5-1-4.3-3-5.4c-2-1.1-3-2.4-3-4c0-2.3,1.6-3.4,4.8-3.4H780v22
		c0,2.3-1.1,3.5-3.2,3.5c-1.6,0-2.8-1-3.6-2.9c-1-2.6-1.8-4.7-2.5-6.1c-1.1-2.3-2.6-4.3-4.6-6.2c-1.6-1.4-3.7-2.3-6.6-2.6
		c-1-0.1-3.4-0.1-7.2-0.1v28.6h3.8c2.3,0,4-1.1,5.2-3.4c0.7-2,1.6-4.1,2.4-6.1c0.8-2.2,1.9-3.1,3.1-3.1c2,0,3,2.2,3,6.4v20.7
		c0,4-1,5.9-3,5.9c-1.2,0-2.3-1.1-3.2-3.4c-0.8-2-1.7-4.1-2.5-6.1c-1.3-2.3-3-3.4-4.9-3.4h-3.8V99.9z M837.6,97.2v0.2
		c12.2,1.8,18.3,7.1,18.3,15.8v10.4c0,1.6,0.4,2.3,1.2,2.3c0.5,0,1.1-0.6,1.7-1.7c0.6-1.1,1.6-1.7,2.6-1.7c1,0,1.8,0.4,2.5,1.2
		c0.7,0.7,1.1,1.7,1.1,2.6c0,2.4-1.1,4.7-3.2,6.9c-1.8,1.9-4.1,3.5-6.6,4.6c-2.3,1-4.7,1.6-7.4,1.6c-11.3,0-16.9-6.7-16.9-20.1
		c0-6.1,0-8.6,0-7.5c-0.1-3-0.7-5.4-1.7-7.3c-0.8-1.7-2.2-2.6-4-3c-0.6-0.1-2.4-0.2-5.3-0.2v25.6c0,2,1,3.6,3,4.6s3,2.3,3,3.8
		c0,2.3-1.6,3.5-4.6,3.5h-28.4c-3.2,0-4.8-1.2-4.8-3.5c0-1.6,1-2.8,3-3.8s3-2.9,3-5.5v-57c0-2.5-1-4.3-3-5.4s-3-2.4-3-4
		c0-2.3,1.6-3.4,4.8-3.4h34.6c8.5,0,15,1.3,19.4,4.1c5.5,3.4,8.3,9,8.3,17c0,11-5.9,17.7-17.7,20V97.2z M820.1,63.5v30.8h3.5
		c4.4,0,6.7-3.4,6.7-10.1V73.6c0-6.8-2.3-10.2-6.7-10.2h-3.5V63.5z M885.3,138.6h-13.7c-3.5,0-5.2-1.2-5.2-3.6
		c0-1.3,0.4-2.2,1.2-2.5c2.5-1.3,4.7-3,6.4-5c1.3-1.7,2.6-4.4,3.7-8.1l13.1-44.9c1.1-3.7,1.6-6.6,1.6-8.7c0-1.1-1-2-2.8-2.9
		c-1.8-0.8-2.8-2-2.8-3.5c0-2.3,1.6-3.4,4.7-3.4h24.7l17.1,69.6c0.5,1.8,1.7,3.6,3.8,5.2c1.8,1.4,2.8,2.8,2.8,4.1c0,2.4-2,3.7-6,3.7
		h-26c-4,0-5.9-1.3-5.9-4c0-1.3,0.8-2.4,2.4-3.4c1.6-1,2.4-1.9,2.4-2.8c0-1-1-5.6-2.9-13.8h-18.2c-1.6,5.6-2.4,9.2-2.4,11.1
		c0,2.2,1.2,3.8,3.6,5c2.4,1.2,3.6,2.5,3.6,4c0,2.4-1.8,3.7-5.3,3.7V138.6z M896.5,79.1l-8.5,28.5h14.6l-6.2-28.5H896.5z
		 M937.8,56.2h64.9v24.7c0,2.9-1.3,4.3-4,4.3c-1,0-1.8-0.2-2.4-0.7c-0.8-0.6-1.6-2.8-2.2-6.6c-0.7-4.6-1.6-7.8-2.5-9.6
		c-1.7-3.2-4.3-4.8-7.9-4.8v63.9c0,1.7,1.2,3.1,3.5,4.2s3.5,2.4,3.5,3.8c0,2.3-1.8,3.4-5.5,3.4h-29.1c-3.5,0-5.3-1.1-5.3-3.4
		c0-1.4,1.2-2.8,3.5-4c2.3-1.2,3.5-2.8,3.5-4.9v-63c-3.5,0-6.2,1.4-8.1,4.3c-1.3,1.9-2.4,5-3.4,9.2c-0.1,1.3-0.5,3.2-1.1,5.8
		c-0.5,1.6-1.7,2.4-3.6,2.4c-2.6,0-4-2-4-6.2V56.2H937.8z M1042.8,56.2c3.1,0,4.6,1.1,4.6,3.4c0,1.6-1,3-3,4c-2,1.1-3,2.9-3,5.4
		v57.3c0,2.4,1.1,4.1,3,5.2c2,1.1,3,2.4,3,4c0,2.3-1.6,3.5-4.6,3.5h-28.5c-3.2,0-4.8-1.2-4.8-3.5c0-1.6,1-2.8,2.8-3.6
		c1.8-0.7,2.8-1.6,3-2.5c0.1-0.5,0.2-1.6,0.2-3V68.7c0-2.3-1-4-3-5.2c-2-1.2-3-2.5-3-4c0-2.3,1.6-3.4,4.8-3.4H1042.8z M1054.4,97.4
		c0-11.9,2.8-21.7,8.3-29.5c6.2-8.9,15-13.3,26.5-13.3c11.5,0,20.4,4.4,26.6,13.2c5.5,7.8,8.3,17.6,8.3,29.6s-2.8,21.8-8.3,29.6
		c-6.2,8.7-15.1,13.2-26.6,13.2c-11.5,0-20.2-4.4-26.5-13.3C1057.1,119.2,1054.4,109.4,1054.4,97.4z M1082.1,72.6v49.7
		c0,3.8,0.2,6.4,0.8,7.5c1,2.2,3,3.4,6.2,3.4c3.2,0,5.3-1.1,6.2-3.4c0.6-1.3,0.8-3.8,0.8-7.5V72.6c0-3.7-0.2-6.2-0.8-7.5
		c-1-2.3-3.1-3.4-6.2-3.4c-3.2,0-5.3,1.1-6.2,3.4C1082.4,66.3,1082.1,68.8,1082.1,72.6z M1160.2,56.2l23.6,43.4V77.4
		c0-7.3-2.5-12.3-7.5-15.1c-1-0.5-1.4-1.3-1.4-2.4c0-2.5,1.6-3.8,4.4-3.8h15.2c3.1,0,4.6,1.3,4.6,3.8c0,1-0.5,1.7-1.4,2.4
		c-1,0.7-2,1.3-3,1.9c-3,2.5-4.6,7.1-4.6,13.7v60.7h-15.2l-33.2-58.9v38c0,3.5,0.6,6.2,1.7,8.3s3.1,4.1,6.1,6.1
		c1,0.6,1.3,1.6,1.3,2.9c0,2.5-1.6,3.8-4.7,3.8h-14.9c-3.2,0-4.8-1.3-4.8-3.8c0-1.2,0.5-2,1.4-2.6c5.2-3.2,7.7-8.3,7.7-14.9V68.3
		c-0.7-1.2-1.9-2.8-3.6-4.4c-1.2-0.5-2.4-1-3.7-1.6c-1.2-0.6-1.9-1.6-1.9-2.9c0-2,1.4-3.1,4.3-3.1h29.5L1160.2,56.2z M243.7,64.9
		l-10.4,35.2h18.1L243.7,64.9z M363.2,64.8l-20.8,73.6h-4.1l-19.5-61.6l0,0v36.5c0,5.2,1,9,3,11.6c0.8,1.2,2.6,2.8,5.4,4.6
		c2,1.2,3,2.6,3,4.2c0,3.1-1.9,4.7-5.8,4.7h-18.7c-3.7,0-5.6-1.6-5.6-4.7c0-1.7,0.6-2.9,1.8-3.6c3.7-2,6.1-4.3,7.4-6.6
		c1.3-2.4,1.9-5.8,1.9-10.2V56.2c0-3.4-1-6.1-2.9-8c-0.6-0.5-2.4-1.7-5.5-3.5c-1.9-1.2-2.9-2.6-2.9-4.2c0-2.4,1.8-3.7,5.3-3.7h33.7
		l12.9,40.1l11.4-40.1h33.3c3.8,0,5.8,1.3,5.8,4.1c0,1.9-1.2,3.5-3.6,4.8c-2.4,1.3-3.6,3.4-3.6,6V124c0,2.6,1.2,4.6,3.6,5.8
		c2.4,1.2,3.6,2.8,3.6,4.6c0,2.9-1.9,4.2-5.8,4.2h-35c-3.8,0-5.8-1.4-5.8-4.2c0-1.8,1.2-3.4,3.7-4.8c2.4-1.3,3.7-3.6,3.7-6.7
		l0.1-57.9L363.2,64.8z M410.6,87.6c0-14.7,3.4-26.7,10.2-36.3c7.7-10.9,18.5-16.4,32.6-16.4c14.1,0,25,5.4,32.7,16.3
		c6.8,9.6,10.2,21.8,10.2,36.4c0,14.7-3.4,26.8-10.2,36.4c-7.7,10.8-18.7,16.3-32.7,16.3c-14.1,0-25-5.5-32.6-16.4
		C414,114.4,410.6,102.3,410.6,87.6z M444.8,56.9v61.3c0,4.7,0.4,7.8,1,9.3c1.1,2.8,3.7,4.1,7.7,4.1s6.5-1.3,7.7-4.1
		c0.7-1.6,1-4.7,1-9.3V56.9c0-4.7-0.4-7.7-1-9.3c-1.2-2.8-3.7-4.1-7.7-4.1s-6.5,1.3-7.7,4.1C445,49.1,444.8,52.2,444.8,56.9z"/>
	<g id="_1943211706304">
		
			<linearGradient id="SVGID_1_" gradientUnits="userSpaceOnUse" x1="-1071.8302" y1="-3472.8677" x2="-1057.8303" y2="-2967.8677" gradientTransform="matrix(0.1198 0 0 -0.1198 258.7765 -260.0876)">
			<stop  offset="0" style="stop-color:#3806A1"/>
			<stop  offset="1" style="stop-color:#650B7C"/>
		</linearGradient>
		<path class="st1" d="M154.6,95.5l16.7,29.6c3.7,6.6,3.6,14.1-0.2,20.6c-3.8,6.6-10.4,10.3-18.1,10.3H87.3c0.4-1.3,0.7-2.8,1.1-4.1
			c3-10.8,9-21.2,16.5-29.5c8-8.7,17.1-15.2,27.9-20.1c6.6-3,14.6-5.6,21.7-6.9V95.5z"/>
		
			<linearGradient id="SVGID_2_" gradientUnits="userSpaceOnUse" x1="-1845.4041" y1="-3472.1709" x2="-1779.4041" y2="-2722.1709" gradientTransform="matrix(0.1198 0 0 -0.1198 258.7765 -260.0876)">
			<stop  offset="0" style="stop-color:#3506A3"/>
			<stop  offset="1" style="stop-color:#810F67"/>
		</linearGradient>
		<path class="st2" d="M74.5,156H21.1C13.4,156,7,152.3,3,145.7c-3.8-6.6-4-14-0.2-20.6l26.5-47.2l7.1-12.2c1.6,0.8,2.9,1.6,4.2,2.4
			c9.1,5.6,17,12.2,23.7,20.6c1.3,1.6,2.4,3.2,3.6,5c7.2,11,10.8,21.8,11.3,35c0.2,6.2-0.5,12.5-1.8,18.6c-0.4,1.8-0.8,3.6-1.9,6.4
			c-0.4,0.8-0.6,1.7-1,2.5L74.5,156z"/>
		
			<linearGradient id="SVGID_3_" gradientUnits="userSpaceOnUse" x1="-1339.2822" y1="-2853.9966" x2="-1311.2823" y2="-2170.9966" gradientTransform="matrix(0.1198 0 0 -0.1198 258.7765 -260.0876)">
			<stop  offset="0" style="stop-color:#7A0E6C"/>
			<stop  offset="1" style="stop-color:#C8172C"/>
		</linearGradient>
		<path class="st3" d="M52,38.7l15.2-26.2C71.7,4.8,78.1,0,87,0s15.3,4.8,19.8,12.5l38,65.4l1.8,3.2c-2.4,0.4-4.7,0.5-6.6,0.6
			c-8.7,0.4-16.4,0.1-25.2-1.2c-9.3-1.4-19.2-4.8-27.7-9.1c-8.7-4.4-15.5-9.3-22.4-16.3c-4.3-4.3-7.5-8.3-10.9-13.4
			c-0.6-1-1.3-1.9-1.9-3H52z"/>
	</g>
</g>
</svg>
