<?xml version="1.0" encoding="UTF-8"?>
<!DOCTYPE svg PUBLIC "-//W3C//DTD SVG 1.1//EN" "http://www.w3.org/Graphics/SVG/1.1/DTD/svg11.dtd">
<!-- Creator: CorelDRAW 2021 (64-Bit Оценочная версия) -->
<svg xmlns="http://www.w3.org/2000/svg" xml:space="preserve" width="1199px" height="156px" version="1.1" style="shape-rendering:geometricPrecision; text-rendering:geometricPrecision; image-rendering:optimizeQuality; fill-rule:evenodd; clip-rule:evenodd"
viewBox="0 0 10007 1302"
 xmlns:xlink="http://www.w3.org/1999/xlink"
 xmlns:xodm="http://www.corel.com/coreldraw/odm/2003">
 <defs>
  <style type="text/css">
   <![CDATA[
    .fil0 {fill:#532484;fill-rule:nonzero}
    .fil1 {fill:url(#id0)}
    .fil2 {fill:url(#id1)}
    .fil3 {fill:url(#id2)}
   ]]>
  </style>
  <linearGradient id="id0" gradientUnits="userSpaceOnUse" x1="1083" y1="1302" x2="1097" y2="797">
   <stop offset="0" style="stop-opacity:1; stop-color:#3806A1"/>
   <stop offset="1" style="stop-opacity:1; stop-color:#650B7C"/>
  </linearGradient>
  <linearGradient id="id1" gradientUnits="userSpaceOnUse" x1="298" y1="1300" x2="364" y2="550">
   <stop offset="0" style="stop-opacity:1; stop-color:#3506A3"/>
   <stop offset="1" style="stop-opacity:1; stop-color:#810F67"/>
  </linearGradient>
  <linearGradient id="id2" gradientUnits="userSpaceOnUse" x1="814" y1="683" x2="842" y2="0">
   <stop offset="0" style="stop-opacity:1; stop-color:#7A0E6C"/>
   <stop offset="1" style="stop-opacity:1; stop-color:#C8172C"/>
  </linearGradient>
 </defs>
 <g id="Слой_x0020_1">
  <metadata id="CorelCorpID_0Corel-Layer"/>
  <path class="fil0" d="M1919 1154l-140 0c-35,0 -53,-12 -53,-37 0,-13 4,-22 12,-26 26,-13 48,-31 65,-52 14,-17 27,-45 38,-84l134 -462c11,-38 17,-68 17,-90 0,-11 -9,-21 -28,-30 -18,-9 -28,-20 -28,-35 0,-23 16,-34 48,-34l253 0 176 717c5,19 18,37 39,53 19,14 28,28 28,41 0,25 -20,38 -61,38l-268 0c-40,0 -60,-13 -60,-40 0,-13 8,-25 25,-35 17,-10 25,-19 25,-28 0,-10 -10,-57 -29,-141l-187 0c-17,57 -25,96 -25,114 0,22 12,39 37,52 25,13 37,26 37,40 0,25 -18,38 -54,38zm2822 -85c-61,67 -141,100 -242,100 -98,0 -172,-36 -222,-108 -42,-63 -63,-145 -63,-249 0,-117 26,-205 79,-266 53,-61 122,-91 209,-91 33,0 66,6 99,18 34,12 52,18 54,18 7,0 15,-5 23,-15 8,-10 19,-15 33,-15 20,0 31,12 31,35l0 178c0,35 -12,53 -35,53 -10,0 -18,-3 -24,-9 -7,-6 -19,-34 -37,-84 -16,-47 -38,-79 -66,-97 -24,-15 -50,-23 -77,-23 -28,0 -46,9 -54,27 -5,10 -8,32 -8,64l0 415c0,31 3,51 8,62 8,19 25,28 51,28 21,0 35,-5 42,-14 5,-8 8,-23 8,-43l0 -149c0,-17 -8,-30 -25,-38 -17,-8 -25,-19 -25,-34 0,-18 13,-27 40,-27l198 0c24,0 35,10 35,29 0,11 -5,21 -16,30 -11,9 -16,20 -16,32l0 173zm351 -235l0 260 32 0c44,0 76,-13 97,-37 14,-15 29,-47 46,-96 6,-16 16,-24 30,-24 21,0 32,23 32,68l0 152 -462 0c-27,0 -40,-10 -40,-29 0,-13 8,-23 23,-30 15,-6 23,-13 25,-21 1,-4 2,-13 2,-27l0 -476c0,-21 -8,-36 -25,-45 -17,-9 -25,-20 -25,-33 0,-19 13,-28 40,-28l456 0 0 184c0,19 -9,29 -27,29 -13,0 -23,-8 -30,-24 -8,-22 -15,-39 -21,-51 -9,-19 -22,-36 -38,-52 -13,-12 -31,-19 -55,-22 -8,-1 -28,-1 -60,-1l0 239 32 0c19,0 33,-9 43,-28 6,-17 13,-34 20,-51 7,-18 16,-26 26,-26 17,0 25,18 25,53l0 173c0,33 -8,49 -25,49 -10,0 -19,-9 -27,-28 -7,-17 -14,-34 -21,-51 -11,-19 -25,-28 -41,-28l-32 0zm565 -365l197 362 0 -185c0,-61 -21,-103 -63,-126 -8,-4 -11,-11 -11,-20 0,-21 12,-32 37,-32l127 0c26,0 38,11 38,32 0,8 -4,14 -12,20 -8,6 -17,11 -25,16 -26,21 -38,59 -38,114l0 507 -127 0 -277 -492 0 317c0,29 5,52 14,69 9,17 26,34 51,51 8,5 12,13 12,24 0,21 -13,32 -39,32l-124 0c-27,0 -40,-11 -40,-32 0,-10 4,-17 12,-22 43,-27 64,-69 64,-124l0 -410c-6,-10 -16,-23 -30,-37 -10,-4 -20,-8 -31,-13 -10,-5 -16,-13 -16,-24 0,-17 12,-26 36,-26l246 0zm622 365l0 260 32 0c44,0 76,-13 97,-37 14,-15 29,-47 46,-96 6,-16 16,-24 30,-24 21,0 32,23 32,68l0 152 -462 0c-27,0 -40,-10 -40,-29 0,-13 8,-23 23,-30 15,-6 23,-13 25,-21 1,-4 2,-13 2,-27l0 -476c0,-21 -8,-36 -25,-45 -17,-9 -25,-20 -25,-33 0,-19 13,-28 40,-28l456 0 0 184c0,19 -9,29 -27,29 -13,0 -23,-8 -30,-24 -8,-22 -15,-39 -21,-51 -9,-19 -22,-36 -38,-52 -13,-12 -31,-19 -55,-22 -8,-1 -28,-1 -60,-1l0 239 32 0c19,0 33,-9 43,-28 6,-17 13,-34 20,-51 7,-18 16,-26 26,-26 17,0 25,18 25,53l0 173c0,33 -8,49 -25,49 -10,0 -19,-9 -27,-28 -7,-17 -14,-34 -21,-51 -11,-19 -25,-28 -41,-28l-32 0zm712 -23l0 2c102,15 153,59 153,132l0 87c0,13 3,19 10,19 4,0 9,-5 14,-14 5,-9 13,-14 22,-14 8,0 15,3 21,10 6,6 9,14 9,22 0,20 -9,39 -27,58 -15,16 -34,29 -55,38 -19,8 -39,13 -62,13 -94,0 -141,-56 -141,-168 0,-51 0,-72 0,-63 -1,-25 -6,-45 -14,-61 -7,-14 -18,-22 -33,-25 -5,-1 -20,-2 -44,-2l0 214c0,17 8,30 25,38 17,8 25,19 25,32 0,19 -13,29 -38,29l-237 0c-27,0 -40,-10 -40,-29 0,-13 8,-23 25,-32 17,-9 25,-24 25,-46l0 -476c0,-21 -8,-36 -25,-45 -17,-9 -25,-20 -25,-33 0,-19 13,-28 40,-28l289 0c71,0 125,11 162,34 46,28 69,75 69,142 0,92 -49,148 -148,167zm-146 -281l0 257 29 0c37,0 56,-28 56,-84l0 -89c0,-57 -19,-85 -56,-85l-29 0zm544 627l-114 0c-29,0 -43,-10 -43,-30 0,-11 3,-18 10,-21 21,-11 39,-25 53,-42 11,-14 22,-37 31,-68l109 -375c9,-31 13,-55 13,-73 0,-9 -8,-17 -23,-24 -15,-7 -23,-17 -23,-29 0,-19 13,-28 39,-28l206 0 143 581c4,15 14,30 32,43 15,12 23,23 23,34 0,20 -17,31 -50,31l-217 0c-33,0 -49,-11 -49,-33 0,-11 7,-20 20,-28 13,-8 20,-16 20,-23 0,-8 -8,-47 -24,-115l-152 0c-13,47 -20,77 -20,93 0,18 10,32 30,42 20,10 30,21 30,33 0,20 -15,31 -44,31zm93 -497l-71 238 122 0 -52 -238zm345 -191l542 0 0 206c0,24 -11,36 -33,36 -8,0 -15,-2 -20,-6 -7,-5 -13,-23 -18,-55 -6,-38 -13,-65 -21,-80 -14,-27 -36,-40 -66,-40l0 533c0,14 10,26 29,35 19,9 29,20 29,32 0,19 -15,28 -46,28l-243 0c-29,0 -44,-9 -44,-28 0,-12 10,-23 29,-33 19,-10 29,-23 29,-41l0 -526c-29,0 -52,12 -68,36 -11,16 -20,42 -28,77 -1,11 -4,27 -9,48 -4,13 -14,20 -30,20 -22,0 -33,-17 -33,-52l0 -190zm876 0c26,0 38,9 38,28 0,13 -8,25 -25,33 -17,9 -25,24 -25,45l0 478c0,20 9,34 25,43 17,9 25,20 25,33 0,19 -13,29 -38,29l-238 0c-27,0 -40,-10 -40,-29 0,-13 8,-23 23,-30 15,-6 23,-13 25,-21 1,-4 2,-13 2,-25l0 -480c0,-19 -8,-33 -25,-43 -17,-10 -25,-21 -25,-33 0,-19 13,-28 40,-28l238 0zm97 344c0,-99 23,-181 69,-246 52,-74 125,-111 221,-111 96,0 170,37 222,110 46,65 69,147 69,247 0,100 -23,182 -69,247 -52,73 -126,110 -222,110 -96,0 -169,-37 -221,-111 -46,-64 -69,-146 -69,-246zm231 -207l0 415c0,32 2,53 7,63 8,18 25,28 52,28 27,0 44,-9 52,-28 5,-11 7,-32 7,-63l0 -415c0,-31 -2,-52 -7,-63 -8,-19 -26,-28 -52,-28 -27,0 -44,9 -52,28 -4,10 -7,31 -7,63zm652 -137l197 362 0 -185c0,-61 -21,-103 -63,-126 -8,-4 -12,-11 -12,-20 0,-21 13,-32 37,-32l127 0c26,0 38,11 38,32 0,8 -4,14 -12,20 -8,6 -17,11 -25,16 -25,21 -38,59 -38,114l0 507 -127 0 -277 -492 0 317c0,29 5,52 14,69 9,17 26,34 51,51 8,5 11,13 11,24 0,21 -13,32 -39,32l-124 0c-27,0 -40,-11 -40,-32 0,-10 4,-17 12,-22 43,-27 64,-69 64,-124l0 -410c-6,-10 -16,-23 -30,-37 -10,-4 -20,-8 -31,-13 -10,-5 -16,-13 -16,-24 0,-17 12,-26 36,-26l246 0zm-7649 73l-87 294 151 0 -64 -294zm997 -1l-174 614 -34 0 -163 -514 0 0 0 305c0,43 8,75 25,97 7,10 22,23 45,38 17,10 25,22 25,35 0,26 -16,39 -48,39l-156 0c-31,0 -47,-13 -47,-39 0,-14 5,-24 15,-30 31,-17 51,-36 62,-55 11,-20 16,-48 16,-85l0 -477c0,-28 -8,-51 -24,-67 -5,-4 -20,-14 -46,-29 -16,-10 -24,-22 -24,-35 0,-20 15,-31 44,-31l281 0 108 335 95 -335 278 0c32,0 48,11 48,34 0,16 -10,29 -30,40 -20,11 -30,28 -30,50l0 604c0,22 10,38 30,48 20,10 30,23 30,38 0,24 -16,35 -48,35l-292 0c-32,0 -48,-12 -48,-35 0,-15 10,-28 31,-40 20,-11 31,-30 31,-56l1 -483zm396 190c0,-123 28,-223 85,-303 64,-91 154,-137 272,-137 118,0 209,45 273,136 57,80 85,182 85,304 0,123 -28,224 -85,304 -64,90 -156,136 -273,136 -118,0 -209,-46 -272,-137 -57,-79 -85,-180 -85,-303zm285 -256l0 512c0,39 3,65 8,78 9,23 31,34 64,34 33,0 54,-11 64,-34 6,-13 8,-39 8,-78l0 -512c0,-39 -3,-64 -8,-78 -10,-23 -31,-34 -64,-34 -33,0 -54,11 -64,34 -6,13 -8,39 -8,78z"/>
  <g id="_1943211706304">
   <path class="fil1" d="M1290 797l139 247c31,55 30,118 -2,172 -32,55 -87,86 -151,86l-547 0c3,-11 6,-23 9,-34 25,-90 75,-177 138,-246 67,-73 143,-127 233,-168 55,-25 122,-47 181,-58z"/>
   <path class="fil2" d="M622 1302l-446 0c-64,0 -118,-31 -151,-86 -32,-55 -33,-117 -2,-172l221 -394 59 -102c13,7 24,13 35,20 76,47 142,102 198,172 11,13 20,27 30,42 60,92 90,182 94,292 2,52 -4,104 -15,155 -3,15 -7,30 -16,53 -3,7 -5,14 -8,21z"/>
   <path class="fil3" d="M434 323l127 -219c37,-64 91,-104 165,-104 74,0 128,40 165,104l317 546 15 27c-20,3 -39,4 -55,5 -73,3 -137,1 -210,-10 -78,-12 -160,-40 -231,-76 -73,-37 -129,-78 -187,-136 -36,-36 -63,-69 -91,-112 -5,-8 -11,-16 -16,-25z"/>
  </g>
 </g>
</svg>
